<?xml version="1.0" encoding="UTF-8" standalone="no"?>
<!-- Created with Inkscape (http://www.inkscape.org/) -->

<svg
   width="210mm"
   height="297mm"
   viewBox="0 0 210 297"
   version="1.1"
   id="svg1"
   xml:space="preserve"
   inkscape:version="1.4 (86a8ad7, 2024-10-11)"
   sodipodi:docname="BetaFlixLogo.svg"
   xmlns:inkscape="http://www.inkscape.org/namespaces/inkscape"
   xmlns:sodipodi="http://sodipodi.sourceforge.net/DTD/sodipodi-0.dtd"
   xmlns="http://www.w3.org/2000/svg"
   xmlns:svg="http://www.w3.org/2000/svg"
   xmlns:rdf="http://www.w3.org/1999/02/22-rdf-syntax-ns#"
   xmlns:cc="http://creativecommons.org/ns#"
   xmlns:dc="http://purl.org/dc/elements/1.1/"><title
     id="title4">BetaFlixLogoVector</title><sodipodi:namedview
     id="namedview1"
     pagecolor="#505050"
     bordercolor="#eeeeee"
     borderopacity="1"
     inkscape:showpageshadow="0"
     inkscape:pageopacity="0"
     inkscape:pagecheckerboard="0"
     inkscape:deskcolor="#505050"
     inkscape:document-units="mm"
     inkscape:zoom="0.51339147"
     inkscape:cx="630.12345"
     inkscape:cy="497.67091"
     inkscape:window-width="1920"
     inkscape:window-height="1017"
     inkscape:window-x="-8"
     inkscape:window-y="-8"
     inkscape:window-maximized="1"
     inkscape:current-layer="layer1" /><defs
     id="defs1"><linearGradient
       id="swatch3"
       inkscape:swatch="solid"><stop
         style="stop-color:#4dac26;stop-opacity:1;"
         offset="0"
         id="stop3" /></linearGradient></defs><g
     inkscape:label="Layer 1"
     inkscape:groupmode="layer"
     id="layer1"><path
       style="fill:#4cac26;fill-opacity:1;stroke:#4cab26;stroke-width:12.9071;stroke-dasharray:none;stroke-opacity:1"
       d="m 300.31199,598.47119 c -3.04685,-2.23423 -3.27808,-8.77045 -2.80708,-79.34787 0.48552,-72.75278 0.70606,-76.95018 4.0772,-77.59901 1.96015,-0.37726 10.72539,3.50624 19.47831,8.63001 8.75293,5.12377 22.48834,12.94593 30.52314,17.38256 29.98707,16.55819 56.97865,32.4135 64.69316,38.00186 4.37861,3.17185 8.68656,5.96901 10.14196,6.97215 6.99401,4.82064 11.70429,9.43877 5.51293,14.75005 -1.87479,1.6083 -11.73569,7.58503 -21.91311,13.28164 -10.17742,5.6966 -26.26374,15.03487 -35.74739,20.75169 -9.48364,5.71683 -17.72307,10.39424 -18.30982,10.39424 -0.58676,0 -7.72833,4.26451 -15.87015,9.4767 -12.76767,8.17354 -33.74046,19.74077 -35.79241,19.74077 -0.3665,0 -2.16054,-1.09566 -3.98674,-2.43479 z"
       id="path2"
       transform="scale(0.26458333)"
       sodipodi:nodetypes="ssssssssssssss" /><path
       style="fill:#afe1f4;fill-opacity:1;stroke:#aee0f4;stroke-width:12.5704;stroke-dasharray:none;stroke-opacity:1"
       d="m 591.65378,863.56409 c -6.13928,3.6474 3.65927,-4.21779 6.57393,-6.53003 6.97508,-5.53343 13.86981,-11.29311 19.76888,-17.9618 13.18119,-14.90087 25.14207,-31.15462 34.44505,-48.73968 6.56437,-12.40838 10.47215,-26.07536 14.75575,-39.44359 1.33339,-4.16124 2.60022,-8.3647 3.39804,-12.6609 1.13243,-6.09805 1.38985,-12.32748 1.95044,-18.5044 0.52084,-5.73888 1.35112,-11.47516 1.31258,-17.2375 -0.0801,-11.98246 -1.62586,-23.92696 -3.20864,-35.80469 -0.3718,-2.79011 -1.02347,-5.53618 -1.47501,-8.3145 -2.36806,-14.57077 -3.87639,-29.27839 -6.47128,-43.81047 -0.84546,-4.7348 -1.94207,-9.42147 -2.96202,-14.12177 -0.91834,-4.23202 -1.85766,-8.45972 -2.84296,-12.67665 -3.3999,-14.55109 -6.57396,-29.16696 -10.58858,-43.56058 -3.22584,-11.56561 -7.04954,-22.95828 -10.83599,-34.35267 -2.92797,-8.81098 -6.09559,-17.54059 -9.18656,-26.29572 -3.32765,-9.42551 -6.53518,-18.89598 -10.07581,-28.24356 -1.58124,-4.1746 -3.14909,-8.36074 -4.9858,-12.42941 -6.45135,-14.29103 -12.9091,-28.67793 -21.16067,-42.01079 -10.09397,-16.30981 -22.27148,-31.27136 -34.44623,-46.09276 -2.2193,-2.70175 -4.62873,-5.24305 -7.02269,-7.79133 -9.88415,-10.5213 -19.55366,-21.30342 -30.2971,-30.94565 -1.46476,-1.31462 -3.12043,-2.40078 -4.63956,-3.65218 -6.70042,-5.51953 -12.97556,-11.54589 -19.729,-17.00041 -4.00868,-3.23768 -8.0427,-6.4655 -12.32924,-9.32517 -0.78208,-0.52175 -1.63505,-0.92936 -2.43479,-1.42362 -2.14321,-1.32457 -4.21809,-2.75664 -6.33046,-4.12987 -2.5639,-1.66677 -5.0382,-3.48197 -7.69974,-4.98792 -16.57611,-9.3791 -33.5057,-18.38276 -51.32411,-25.10876 -8.78335,-3.3155 -18.01962,-5.31787 -27.16768,-7.42803 -3.21915,-0.74255 -6.4501,-1.52738 -9.73916,-1.83784 -18.58414,-1.7542 -37.52173,-2.7409 -56.00015,-0.096 -10.88668,1.55826 -21.08242,6.27199 -31.65226,9.30951 -3.64574,1.0477 -7.16742,3.25275 -10.95655,3.07504 -1.47673,-0.0693 -3.61375,-0.21099 -4.13915,-1.59282 -3.51687,-9.2495 7.48525,-18.6143 13.62333,-26.3761 9.97566,-12.61455 22.14746,-24.38965 36.60939,-31.4248 13.66812,-6.64899 29.54903,-8.02499 44.72406,-8.88804 8.94362,-0.50865 17.98707,0.51771 26.78269,2.21599 9.35683,1.80664 18.37111,5.14639 27.32118,8.41908 1.00935,0.36908 1.97354,0.85177 2.96685,1.26205 2.74342,1.13316 3.12061,1.06389 8.26548,3.31292 2.48992,1.08845 5.90532,2.85383 8.77509,4.43756 3.44836,1.90304 6.74344,4.07167 10.13242,6.07856 3.07374,1.82021 6.23242,3.49956 9.2522,5.40795 1.16237,0.73458 2.2745,1.54581 3.4087,2.32318 3.47269,2.38015 6.94474,4.76136 10.3993,7.16775 3.85134,2.68278 7.74309,5.31079 11.51403,8.10544 1.73079,1.28269 3.45843,2.57495 5.09692,3.97361 12.92533,11.0334 25.1825,22.84189 37.26819,34.78912 7.10246,7.02109 13.92646,14.32168 20.69571,21.66457 4.22111,4.57882 8.54821,9.07935 12.41742,13.95917 1.04989,1.32411 1.90158,2.79561 2.91984,4.14419 2.72324,3.60663 5.71729,7.00101 8.52176,10.54484 3.31314,4.18661 6.59286,8.40035 9.81036,12.6609 2.69974,3.57495 5.30142,7.22293 7.96551,10.82453 5.1349,6.94189 10.6329,13.62558 15.45616,20.78751 0.74269,1.10279 1.34556,2.2947 2.07133,3.4087 1.39056,2.1344 2.98521,4.13135 4.37061,6.26911 1.41619,2.18527 2.71197,4.44664 4.02454,6.69567 5.83382,9.99602 11.79428,19.93209 17.11257,30.21166 7.44239,14.38516 14.37904,29.04836 20.67498,43.97093 1.28722,3.05095 2.33463,6.19762 3.49,9.3009 0.29651,0.79642 0.56767,1.60253 0.8834,2.39152 0.58459,1.46084 1.29662,2.8689 1.87063,4.33393 1.13033,2.88494 2.05811,5.8452 3.09441,8.76524 0.86459,2.43622 1.70178,4.88252 2.60585,7.30437 0.73118,1.95871 1.54318,3.88655 2.2791,5.84349 1.45841,3.87819 2.88602,7.76878 4.2332,11.68699 1.22111,3.55153 2.37124,7.12755 3.48862,10.71307 2.04793,6.57149 3.82321,13.22625 5.89268,19.79099 0.28073,0.89053 0.62428,1.76112 0.8848,2.65777 1.65225,5.68657 3.0264,11.45397 4.29465,17.23831 3.38952,15.45924 6.16371,31.05046 8.85108,46.6471 1.07987,6.26726 1.97751,12.56466 2.92166,18.8538 1.4468,9.63733 2.88622,19.27633 4.20359,28.93221 0.8122,5.95311 1.8985,11.88377 2.28137,17.87982 1.21293,18.99551 1.7244,38.14343 0.0357,57.10257 -0.33918,3.80795 -1.34642,7.52658 -2.03409,11.28725 -1.12843,6.17105 -1.97889,12.40182 -3.43272,18.5044 -2.76586,11.60996 -5.99462,23.14001 -10.04341,34.36714 -1.19012,3.30017 -2.66525,6.49438 -4.1749,9.66115 -1.76558,3.70363 -3.68115,7.33778 -5.70359,10.90764 -2.1563,3.80614 -4.18764,7.7228 -6.84938,11.19432 -6.37698,8.31704 -13.84655,15.80224 -21.64136,22.80795 -1.14847,1.0322 -2.41616,1.92663 -3.68045,2.81319 -0.77657,0.54456 -1.58043,1.05048 -2.39484,1.53664 -1.14826,0.68545 -2.30864,1.35534 -3.50939,1.94401 -6.64257,3.25652 -13.29609,6.66662 -20.3915,8.76037 -8.13231,2.39973 -16.60783,3.87683 -25.07832,4.25626 -16.40808,0.73499 -4.84919,-2.68671 -7.06089,-1.70194 -5.89667,2.62553 0,10e-6 0,10e-6 z"
       id="path3"
       sodipodi:nodetypes="ssaaaaaaaaaaaaaaaaaaaaaaaaaaaaaaaaaaaaaaasaaaaaaaaaaaaaaaaaaaaaaaaaaaaaaaaaaaaaaaaaaaaaaasss"
       transform="scale(0.26458333)" /><path
       style="fill:#afe1f4;fill-opacity:1;stroke:#aee0f4;stroke-width:12.5704;stroke-dasharray:none;stroke-opacity:1"
       d="m 584.83637,1063.9834 c -15.35307,-1.6284 -30.42475,-5.5349 -45.28708,-9.7157 -3.80819,-1.0713 -7.47655,-2.5891 -11.20003,-3.9254 -4.19156,-1.5043 -8.45445,-2.836 -12.54067,-4.6065 -19.04413,-8.2518 -37.39697,-18.052 -55.63343,-27.9617 -2.15939,-1.1734 -4.2602,-2.4524 -6.36211,-3.7259 -6.5507,-3.969 -13.05471,-8.018 -19.47197,-12.1993 -1.314,-0.8562 -2.60938,-1.741 -3.89566,-2.63823 -2.94194,-2.05219 -5.82167,-4.19216 -8.73993,-6.27788 -3.80937,-2.72261 -7.65764,-5.39095 -11.44744,-8.14074 -3.30077,-2.39496 -6.6229,-4.76422 -9.83343,-7.27886 -3.68394,-2.88544 -7.21602,-5.95971 -10.81201,-8.95404 -9.61378,-8.00528 -19.58635,-15.60522 -28.77685,-24.09309 -27.50084,-25.39835 -53.76425,-52.19551 -78.70066,-80.11589 -1.67072,-1.87064 -3.14576,-3.90738 -4.74013,-5.8435 -8.87621,-10.77884 -18.05862,-21.30442 -26.86645,-32.13921 -1.72992,-2.12803 -3.43536,-4.27648 -5.10177,-6.4546 -0.82881,-1.08331 -1.61854,-2.19599 -2.43479,-3.28879 -5.63543,-7.54478 -11.58054,-14.86255 -17.00236,-22.56226 -0.89453,-1.27035 -1.69369,-2.60538 -2.55922,-3.89567 -1.93529,-2.88503 -3.91747,-5.73835 -5.88891,-8.5988 -4.82032,-6.99402 -9.75184,-13.91151 -14.52294,-20.93919 -2.51764,-3.70841 -4.96156,-7.46634 -7.44155,-11.20003 -4.70949,-7.09026 -9.31704,-14.24924 -14.12549,-21.27277 -0.84542,-1.23487 -1.779,-2.40958 -2.58846,-3.66831 -1.1121,-1.72934 -2.07917,-3.54778 -3.1102,-5.32665 -1.29419,-2.23292 -2.55734,-4.48382 -3.86106,-6.71119 -3.06451,-5.23562 -6.16205,-10.45223 -9.31078,-15.63764 -1.04173,-1.71555 -2.13935,-3.39696 -3.16976,-5.11934 -1.60256,-2.67874 -3.12067,-5.40711 -4.68444,-8.10867 -1.57773,-2.72568 -3.25038,-5.39827 -4.74013,-8.17302 -15.85155,-29.52454 -30.72889,-59.5916 -44.62092,-90.0872 -3.73769,-8.20493 -6.954419,-16.63735 -10.408961,-24.96545 -0.815165,-1.96517 -1.617965,-3.93547 -2.434789,-5.89995 -0.806441,-1.93951 -1.641377,-3.86721 -2.434789,-5.81209 -0.799917,-1.96083 -1.560961,-3.93729 -2.344542,-5.9047 -1.329388,-3.33782 -2.713907,-6.65402 -3.99868,-10.00926 -0.865486,-2.26026 -1.670407,-4.54325 -2.498672,-6.81741 -1.949448,-5.35258 -3.903689,-10.70353 -5.815658,-16.06961 -0.981479,-2.75459 -1.980169,-5.50363 -2.903426,-8.27828 -1.34326,-4.03688 -2.534752,-8.12278 -3.834279,-12.17395 -1.460415,-4.55272 -2.95264,-9.09523 -4.453385,-13.63482 -1.074505,-3.25026 -2.212961,-6.47945 -3.258451,-9.73916 -1.400139,-4.36546 -2.762959,-8.74377 -4.036401,-13.14786 -1.72862,-5.97828 -3.318927,-11.99614 -4.891156,-18.01744 -1.648865,-6.3148 -3.250018,-12.64266 -4.763157,-18.99135 -1.003119,-4.20879 -1.973915,-8.42606 -2.860614,-12.66091 -1.389027,-6.63396 -2.938607,-13.24927 -3.851927,-19.96527 -4.980936,-36.62679 -8.22836,-73.58045 -8.832618,-110.53943 -0.425026,-25.99637 -0.550837,-52.25792 3.667693,-77.91325 1.96972,-11.97901 6.319633,-23.45217 10.026466,-35.01227 0.249865,-0.77923 0.533398,-1.5475 0.822601,-2.313 2.341547,-6.1979 4.90375,-12.31023 7.386377,-18.45298 0.46479,-1.15003 0.8667,-2.32832 1.405869,-3.44541 1.049787,-2.17502 2.352497,-4.21872 3.549228,-6.31649 0.839335,-1.47128 1.63218,-2.97157 2.546628,-4.39738 5.457853,-8.50988 10.951511,-17.07093 17.513987,-24.76119 7.017063,-8.222978 19.939348,-20.571456 23.201686,-22.658123 5.79347,-3.70564 6.56998,-3.923998 12.34369,-7.07773 3.10359,-1.695251 11.64538,-5.925217 17.64262,-8.504921 1.56565,-0.67346 3.16432,-1.272395 4.7794,-1.816727 4.07674,-1.373984 8.13668,-2.935541 12.37862,-3.652183 12.17782,-2.057347 24.65859,-1.837765 37.0088,-1.771252 12.0321,0.0648 24.13901,0.307264 36.03488,2.113878 6.94386,1.054557 13.67617,3.218794 20.45223,5.066601 6.04602,1.648727 12.12222,3.243126 18.01744,5.368925 2.90433,1.047295 7.01976,0.931299 8.52176,3.6287 1.24591,2.237492 1.1407,6.477515 -1.16397,7.594283 -6.16018,2.985028 -5.59215,2.285915 -8.34785,3.521663 -12.77135,5.727099 -26.03433,10.642223 -37.92072,18.032807 -13.16674,8.186669 -25.60312,17.802489 -36.49671,28.834909 -8.71751,8.82861 -15.54052,19.36516 -22.70323,29.49605 -2.3447,3.31633 -4.60106,6.70471 -6.62475,10.22611 -5.18129,9.0159 -10.04689,18.25293 -14.08225,27.83667 -0.56792,1.34879 -0.95129,2.76808 -1.41735,4.15536 -4.64445,13.82492 -10.2989,27.36662 -13.74188,41.53861 -4.61694,19.00424 -6.67481,38.55246 -9.183,57.94798 -0.81568,6.30759 -1.58896,12.63271 -1.90572,18.98493 -0.71162,14.27065 -0.59614,28.58992 0.017,42.86514 0.3145,7.32222 1.16834,14.61201 1.87658,21.90668 1.35599,13.96636 2.42763,27.97855 4.54255,41.85028 0.72311,4.74289 1.85048,9.41527 2.78148,14.12177 1.63966,8.28899 3.1165,16.61229 4.93928,24.86295 1.00908,4.5675 2.19767,9.09351 3.31874,13.63482 1.12288,4.54863 2.26171,9.09333 3.41314,13.63482 1.14662,4.52252 2.26938,9.05151 3.48078,13.55711 1.26957,4.72195 2.5457,9.44387 3.969,14.12178 1.35043,4.4384 2.86219,8.82624 4.33492,13.22557 1.25245,3.74131 2.56628,7.46184 3.828,11.20003 1.14904,3.40434 2.23851,6.82877 3.40806,10.22611 1.42984,4.15343 2.84101,8.31534 4.41211,12.41743 3.04447,7.94901 6.39511,15.77804 9.71161,23.61745 2.24499,5.30663 4.61243,10.56065 6.89532,15.85109 1.43514,3.32583 2.72953,6.71459 4.27604,9.99012 11.23147,23.78838 23.66955,46.99933 36.28896,70.08143 1.15211,2.10731 2.38134,4.17167 3.59783,6.24248 0.97851,1.66571 1.94881,3.33702 2.97686,4.97262 0.96628,1.53733 2.0321,3.01057 2.9983,4.54794 2.60203,4.14021 4.98141,8.41667 7.53393,12.58759 2.61169,4.26759 5.24885,8.52038 7.96081,12.72497 5.26894,8.1689 10.50081,16.37091 16.14394,24.28594 12.54218,17.59163 25.5784,34.85476 39.332,51.5164 5.53721,6.70798 11.59217,12.97127 17.36418,19.47831 4.59744,5.18289 9.0276,10.517 13.75388,15.58266 9.17507,9.8339 18.55938,19.48726 28.32921,28.73051 5.70281,5.39544 11.7883,10.37154 17.66003,15.58265 4.0952,3.63446 8.15206,7.31205 12.25423,10.93865 1.91379,1.69192 3.79235,3.42606 5.76564,5.0482 8.6586,7.11777 17.71873,13.73285 26.62742,20.53499 1.0982,0.83852 2.19671,1.67678 3.30668,2.49965 1.33057,0.98641 2.67062,1.96013 4.0192,2.92175 6.19565,4.41788 12.2594,9.04241 18.70738,13.08312 0.56414,0.35352 1.17116,0.6342 1.74379,0.97379 2.96906,1.76076 5.80155,3.74497 8.76691,5.51196 3.28185,1.95558 6.67428,3.71991 9.98286,5.62991 2.53662,1.46436 4.99111,3.07212 7.56529,4.46938 15.37587,8.34601 31.00155,16.28112 47.00614,23.34697 1.91162,0.84396 3.89057,1.52656 5.84349,2.26997 3.95589,1.50587 7.90216,3.04072 11.89809,4.43689 3.22366,1.12634 6.47364,2.17868 9.73916,3.17719 8.87861,2.71486 17.78049,5.37614 26.78268,7.64787 3.51319,0.88656 7.01558,1.93292 10.61684,2.33218 31.3304,3.47342 63.11691,2.58156 94.56606,0.4346 3.92553,-0.26799 7.87202,-0.69477 11.68698,-1.65791 9.73035,-2.45658 13.58987,-1.73573 28.24356,-10.42747 10.25571,-6.08311 12.72912,-12.66988 17.40874,-8.26856 8.63316,8.11972 -5.70078,24.76246 -13.25886,32.99026 -2.09694,2.2827 -5.88808,5.6269 -8.89772,8.3696 -7.72163,7.0366 -15.02879,14.6214 -23.49572,20.7409 -5.94115,4.294 -12.51097,7.6618 -18.99135,11.0882 -2.22494,1.1764 -4.47851,2.3158 -6.81741,3.2452 -9.03498,3.5903 -18.17215,7.328 -27.7566,8.9588 -17.44752,2.9686 -35.3815,1.0997 -53.0784,1.3197 z"
       id="path4"
       transform="scale(0.26458333)"
       sodipodi:nodetypes="aaaaaaaaaaaaaaaaaaaaaaaaaaaaaaaaaaaaaaaaaaaaaaaaaaaaaaaaassaaaaaaaasaaaaaaaaaaaaaaaaaaaaaaaaaaaaaaaaaaaaaaaaaaaaaaaaaaaaaaaasasaaaaaaa" /></g><metadata
     id="metadata4"><rdf:RDF><cc:Work
         rdf:about=""><dc:title>BetaFlixLogoVector</dc:title></cc:Work></rdf:RDF></metadata></svg>
